<svg width="72" height="72" viewBox="0 0 72 72" fill="none" xmlns="http://www.w3.org/2000/svg">
<rect width="72" height="72" rx="20" fill="white"/>
<path d="M56.0741 29.3676C55.9954 29.1877 55.9533 28.9939 55.9504 28.7975C55.9475 28.6012 55.9838 28.4062 56.0572 28.224C56.1305 28.0419 56.2395 27.8762 56.3776 27.7366C56.5158 27.5971 56.6804 27.4864 56.8618 27.4113C57.0432 27.3361 57.2378 27.2978 57.4341 27.2987C57.6305 27.2996 57.8247 27.3397 58.0054 27.4166C58.1861 27.4934 58.3497 27.6056 58.4865 27.7464C58.6234 27.8872 58.7308 28.0539 58.8024 28.2368C59.3925 29.6448 59.8402 31.1084 60.1387 32.6056C60.7681 35.7489 60.7396 38.9884 60.0551 42.1201C59.3705 45.2518 58.0448 48.2078 56.1615 50.8018C54.2781 53.3958 51.8779 55.5717 49.1121 57.1923C46.3463 58.8129 43.2748 59.8431 40.0912 60.218C39.8983 60.2401 39.703 60.224 39.5163 60.1705C39.3297 60.1171 39.1554 60.0275 39.0034 59.9067C38.8514 59.7859 38.7247 59.6364 38.6305 59.4666C38.5363 59.2968 38.4765 59.1102 38.4544 58.9173C38.4323 58.7244 38.4484 58.5291 38.5019 58.3425C38.5553 58.1558 38.645 57.9815 38.7657 57.8295C38.8865 57.6775 39.036 57.5508 39.2058 57.4566C39.3756 57.3624 39.5622 57.3026 39.7551 57.2805C42.8677 56.9136 45.8527 55.8293 48.4751 54.1129C51.0976 52.3964 53.2858 50.0948 54.8677 47.3891C56.4496 44.6834 57.3818 41.6475 57.5912 38.5203C57.8005 35.3931 57.2812 32.26 56.0741 29.3676ZM45.726 31.5972C45.7165 31.6459 45.6993 31.6928 45.6749 31.7361C45.6396 31.855 45.6181 31.9776 45.611 32.1014V32.1407L44.9981 41.1195C45.0668 41.3658 45.1977 41.5904 45.378 41.7717C45.5337 41.9102 45.7351 41.9863 45.9434 41.9854H45.9946L48.5695 42.1681H48.5887C48.9878 42.2156 49.2847 42.1279 49.4948 41.9188C49.7313 41.6813 49.8857 41.2794 49.9688 40.7405V40.7322L51.3052 32.6942C51.3029 32.6812 51.3029 32.6679 51.3052 32.6549C51.3965 32.1982 51.3052 31.8913 51.0951 31.7013C50.8457 31.484 50.4228 31.3698 49.862 31.3296H49.8218L46.9235 31.1323C46.4805 31.1003 46.149 31.1679 45.9389 31.3332C45.8453 31.4056 45.7707 31.4997 45.7215 31.6073L45.726 31.5972ZM42.2103 41.3333C42.1524 41.2686 42.114 41.1888 42.0998 41.1031L38.4736 33.3738C38.0671 32.5755 37.6515 32.528 37.2359 32.7344C36.94 32.8851 36.623 33.1381 36.3033 33.3912C36.1097 33.5455 35.9197 33.6953 35.7553 33.8141L35.0044 34.3521C34.5071 34.7079 33.915 34.9076 33.3037 34.9257C32.9497 34.9395 32.5973 34.871 32.2743 34.7256C31.9548 34.5844 31.6801 34.3585 31.4796 34.0726C31.2529 33.7388 31.1305 33.3452 31.1279 32.9418C31.1623 32.8423 31.202 32.7447 31.2467 32.6495L33.69 30.1184C33.2532 30.0793 32.8128 30.1101 32.3857 30.2097C31.7682 30.3559 31.1836 30.6445 30.5424 31.0245C30.4656 31.0757 30.3743 31.1007 30.2821 31.0958L27.6798 30.9176L27.3418 35.8327L27.1363 38.9757L28.6508 39.079C28.7239 39.0829 28.7946 39.1067 28.8552 39.1477C28.9159 39.1887 28.9642 39.2455 28.9951 39.3119L30.652 42.7207C30.8932 43.2194 31.1087 43.646 31.391 43.9383C31.6559 44.2123 32.0194 44.395 32.593 44.4526C32.8025 44.4743 33.0141 44.4516 33.2141 44.3859C33.343 44.3421 33.4657 44.2823 33.5795 44.2078L32.5163 41.8466C32.4771 41.7474 32.4778 41.6368 32.5181 41.5381C32.5585 41.4393 32.6355 41.3599 32.7329 41.3166C32.8304 41.2732 32.9409 41.2691 33.0413 41.3053C33.1417 41.3414 33.2242 41.4149 33.2717 41.5105L34.4262 44.0808C34.9003 44.3658 35.3397 44.4726 35.7507 44.4169C36.1224 44.3621 36.4814 44.1685 36.834 43.8323L35.1296 40.7039C35.1036 40.6559 35.0873 40.6033 35.0817 40.549C35.0761 40.4948 35.0812 40.4399 35.0968 40.3876C35.1123 40.3354 35.138 40.2866 35.1724 40.2443C35.2068 40.2019 35.2492 40.1668 35.2972 40.1408C35.3452 40.1148 35.3978 40.0986 35.4521 40.0929C35.5063 40.0873 35.5612 40.0924 35.6135 40.108C35.6657 40.1235 35.7145 40.1493 35.7568 40.1836C35.7992 40.218 35.8343 40.2604 35.8603 40.3084L37.6551 43.604C37.9623 43.7694 38.3167 43.8254 38.6599 43.7629C38.9723 43.699 39.2993 43.5218 39.6254 43.2249L38.0397 39.6699C38.0176 39.6201 38.0056 39.5664 38.0043 39.5119C38.003 39.4574 38.0124 39.4032 38.032 39.3524C38.0516 39.3015 38.0811 39.255 38.1187 39.2156C38.1563 39.1761 38.2013 39.1444 38.2512 39.1223C38.301 39.1003 38.3547 39.0882 38.4092 39.0869C38.4637 39.0856 38.5179 39.095 38.5687 39.1147C38.6196 39.1343 38.6661 39.1638 38.7055 39.2014C38.745 39.239 38.7767 39.284 38.7987 39.3338L40.4429 43.0112C40.6772 43.1627 40.9563 43.2297 41.2339 43.2012C41.4759 43.1766 41.7081 43.0925 41.9098 42.9564C42.1002 42.8315 42.2488 42.6523 42.3364 42.4421C42.4341 42.1863 42.4341 41.9033 42.3364 41.6475L42.2058 41.3351L42.2103 41.3333ZM44.2865 41.5863L43.1831 41.5105C43.2964 41.9123 43.2756 42.3401 43.1237 42.729C42.974 43.0925 42.7197 43.4034 42.393 43.6223C42.0744 43.84 41.7058 43.9733 41.3216 44.0096C40.9399 44.0485 40.5549 43.9802 40.21 43.8123C39.8272 44.1816 39.352 44.441 38.8344 44.5631C38.3621 44.6552 37.8729 44.5987 37.4341 44.4014C36.9518 44.8682 36.4339 45.1486 35.8813 45.2235C35.3287 45.2984 34.7304 45.1796 34.1212 44.8435C33.9233 44.9785 33.7083 45.0863 33.4818 45.1641C33.1721 45.2707 32.8427 45.3072 32.5172 45.271C31.7216 45.1915 31.2037 44.923 30.8046 44.511C30.4209 44.1201 30.1798 43.6378 29.9067 43.076L28.3539 39.8846L26.9902 39.7932C26.8833 40.1842 26.7207 40.2637 26.4997 40.5167C26.0019 41.0739 25.5707 41.3671 24.8035 41.3232C23.6882 41.2602 21.7116 41.4063 21.0704 40.5596C20.7461 40.1294 20.5525 39.4571 20.5168 38.4798C20.5186 38.468 20.5186 38.4559 20.5168 38.4441L20.4255 30.7815C20.3588 29.9513 20.536 29.3776 20.8922 29.0059C21.2485 28.6341 21.77 28.4797 22.3866 28.4953H22.4386L25.5835 28.7154C26.1763 28.7465 26.6796 28.8853 27.0541 29.1621C27.358 29.3826 27.5692 29.7081 27.6469 30.0755L30.2136 30.2499C30.8895 29.8581 31.5143 29.5621 32.1948 29.3959C32.92 29.2287 33.6729 29.2206 34.4016 29.3722L35.3387 28.4067C35.3543 28.3869 35.3728 28.3697 35.3935 28.3555C35.6525 28.1427 35.94 27.9671 36.2476 27.834C36.5721 27.6928 36.9116 27.5892 37.2596 27.5252C37.821 27.4267 38.3928 27.4028 38.9604 27.454C39.5643 27.5074 40.1601 27.63 40.7361 27.8194C41.7408 28.1591 42.5821 28.8396 43.3968 29.5C43.5795 29.6462 43.7622 29.796 43.9787 29.9567C43.986 29.9567 43.9942 29.9686 44.0024 29.9723L45.1899 30.8857C45.2589 30.802 45.3373 30.7266 45.4237 30.661C45.8028 30.3641 46.3207 30.2417 46.9765 30.2846L49.8748 30.4829C49.8853 30.4809 49.8962 30.4809 49.9067 30.4829C50.6502 30.5304 51.243 30.7085 51.6422 31.0601C52.0816 31.452 52.2633 32.0128 52.1163 32.7883C52.1163 32.7956 52.1163 32.8002 52.1163 32.8075L50.7799 40.8455C50.6731 41.5653 50.4402 42.1188 50.0721 42.4896C49.6802 42.8851 49.1586 43.055 48.5019 42.9792L45.9279 42.802C45.5138 42.805 45.114 42.651 44.809 42.3709C44.5845 42.1451 44.4105 41.8742 44.2984 41.5762L44.2865 41.5863ZM23.5905 37.011C23.7013 37.0188 23.8073 37.0592 23.8952 37.1272C23.9831 37.1952 24.0489 37.2876 24.0843 37.3929C24.1197 37.4982 24.1232 37.6117 24.0942 37.7189C24.0653 37.8262 24.0052 37.9225 23.9216 37.9956C23.838 38.0688 23.7346 38.1156 23.6245 38.1301C23.5143 38.1446 23.4023 38.1262 23.3027 38.0772C23.203 38.0281 23.12 37.9507 23.0643 37.8546C23.0085 37.7585 22.9825 37.648 22.9894 37.5371C22.9941 37.463 23.0133 37.3906 23.0461 37.3239C23.0789 37.2573 23.1245 37.1978 23.1804 37.1489C23.2363 37.1 23.3013 37.0626 23.3716 37.039C23.442 37.0153 23.5164 37.0058 23.5905 37.011ZM47.9959 38.6798C48.1063 38.688 48.2119 38.7287 48.2992 38.7968C48.3866 38.8649 48.4518 38.9574 48.4867 39.0625C48.5216 39.1676 48.5246 39.2807 48.4952 39.3875C48.4659 39.4943 48.4056 39.5901 48.322 39.6627C48.2383 39.7353 48.135 39.7815 48.0252 39.7955C47.9153 39.8094 47.8037 39.7906 47.7046 39.7412C47.6054 39.6919 47.5231 39.6143 47.4679 39.5182C47.4128 39.4221 47.3874 39.3119 47.3948 39.2014C47.3997 39.1275 47.4192 39.0554 47.4521 38.9891C47.485 38.9228 47.5307 38.8637 47.5866 38.8152C47.6425 38.7667 47.7074 38.7298 47.7777 38.7065C47.8479 38.6833 47.9221 38.6742 47.9959 38.6798ZM26.5837 34.8161L26.8687 30.6884C26.8687 30.5693 26.842 30.4516 26.7906 30.3442C26.7393 30.2367 26.6645 30.1421 26.5718 30.0673C26.3426 29.8974 25.9863 29.8106 25.5433 29.7868L22.3838 29.5731C22.0952 29.553 21.7006 29.6087 21.4905 29.8261C21.2969 30.028 21.2055 30.3952 21.253 30.977V31.0126L21.3444 38.1893V38.2012C21.3718 38.9958 21.5106 39.5137 21.7317 39.8106C21.9299 40.0755 25.294 40.6171 25.8758 39.9604C26.1051 39.7001 26.2412 39.2808 26.2914 38.7273H26.2868L26.5718 34.8088L26.5837 34.8161ZM54.2874 21.5972L44.7094 23.3135L46.6952 20.4947C43.67 17.2676 40.3013 16.1103 36.2823 17.3069C40.5461 12.0283 46.212 12.0201 50.6448 14.8754L52.6661 12L54.2874 21.5972ZM27.4852 48.1537L25.5004 50.9697C28.5256 54.1959 31.8943 55.3541 35.9133 54.1566C31.6467 59.4352 25.9809 59.4434 21.5481 56.5881L19.5212 59.4626L17.9045 49.8718L27.4852 48.1555V48.1537ZM16.9436 44.2434C17.0349 44.4187 17.0901 44.6106 17.1059 44.8076C17.1216 45.0047 17.0976 45.2029 17.0353 45.3905C16.9729 45.5781 16.8735 45.7512 16.7429 45.8996C16.6123 46.048 16.4533 46.1687 16.2751 46.2544C16.097 46.3401 15.9035 46.3892 15.706 46.3986C15.5086 46.4081 15.3112 46.3778 15.1257 46.3095C14.9402 46.2412 14.7703 46.1363 14.6261 46.001C14.482 45.8658 14.3665 45.7029 14.2865 45.5222C13.5331 43.9605 12.9598 42.3183 12.5775 40.6272C11.8679 37.5052 11.8116 34.2703 12.4121 31.1255C13.0125 27.9808 14.2568 24.9941 16.0667 22.3532C17.8766 19.7123 20.213 17.4742 22.9292 15.7794C25.6454 14.0847 28.6828 12.9699 31.8504 12.5051C32.238 12.45 32.6317 12.5511 32.9447 12.7862C33.2577 13.0213 33.4646 13.3712 33.5197 13.7588C33.5748 14.1464 33.4737 14.54 33.2386 14.853C33.0035 15.1661 32.6536 15.3729 32.266 15.428C27.4531 16.1316 23.0546 18.5449 19.8755 22.2262C16.6964 25.9075 14.9493 30.6106 14.9542 35.4746C14.9529 36.9922 15.1202 38.5053 15.4529 39.986C15.7898 41.4562 16.2898 42.8842 16.9436 44.2434Z" fill="url(#paint0_linear_723_250)" stroke="url(#paint1_linear_723_250)" stroke-width="0.25"/>
<defs>
<linearGradient id="paint0_linear_723_250" x1="8.62566" y1="1.95256" x2="74.3259" y2="10.272" gradientUnits="userSpaceOnUse">
<stop stop-color="#00D1FF"/>
<stop offset="1" stop-color="#5648FF"/>
</linearGradient>
<linearGradient id="paint1_linear_723_250" x1="8.62566" y1="1.95256" x2="74.3259" y2="10.272" gradientUnits="userSpaceOnUse">
<stop stop-color="#00D1FF"/>
<stop offset="1" stop-color="#5648FF"/>
</linearGradient>
</defs>
</svg>
