<svg width="72" height="72" viewBox="0 0 72 72" fill="none" xmlns="http://www.w3.org/2000/svg">
<rect width="72" height="72" rx="20" fill="#282828" fill-opacity="0.64"/>
<path d="M47.5051 36.5114C47.4558 39.5083 45.9423 42.4248 43.2313 44.8234C42.2731 45.672 41.5488 46.7845 40.7075 47.7682C40.5586 47.9418 40.3851 48.1336 40.1823 48.2149C37.4759 49.279 34.7493 49.2927 32.0191 48.3062C31.8301 48.2426 31.6669 48.1192 31.5542 47.9546C30.7568 46.5434 29.6662 45.397 28.4651 44.3219C22.6412 39.1009 23.6916 29.7311 30.5148 25.8866C38.0942 21.6127 47.5553 27.169 47.5051 36.5114ZM37.1297 41.6192C37.5864 41.4593 37.9655 41.3607 38.3171 41.1963C39.4762 40.6482 40.0115 39.7047 40.0352 38.4341C40.059 37.1873 39.4653 36.3424 38.361 35.8546C37.8047 35.6089 37.2064 35.4555 36.6255 35.2591C36.082 35.0764 35.5093 34.943 35.0106 34.6745C34.7767 34.5475 34.5657 34.1493 34.5712 33.8789C34.5758 33.6341 34.8452 33.3227 35.08 33.1765C35.3407 33.0328 35.6422 32.9813 35.9359 33.0304C36.6529 33.1573 37.3562 33.3592 38.128 33.5464L39.2241 31.8201L37.137 31.009V29.9366H34.8535V31.0327C34.4324 31.2246 34.0433 31.3588 33.6989 31.568C32.6193 32.2238 32.2137 33.2194 32.2959 34.4553C32.3708 35.5843 32.9782 36.3095 33.9875 36.7269C34.4141 36.9041 34.8626 37.0311 35.3019 37.1772C35.9514 37.3946 36.6273 37.5554 37.2384 37.8504C37.4905 37.9728 37.6951 38.3656 37.7545 38.6679C37.8312 39.0817 37.5069 39.3895 37.1251 39.4653C36.662 39.5567 36.1514 39.6362 35.7038 39.5357C34.9941 39.3749 34.3191 39.0607 33.5729 38.7912L32.295 40.4765C33.0696 40.8071 33.7482 41.1387 34.457 41.3808C34.7694 41.4867 34.8763 41.6055 34.8562 41.9142C34.8361 42.2412 34.8516 42.57 34.8516 42.9189H37.1297V41.6192Z" fill="url(#paint0_linear_171_513)"/>
<path d="M50.0471 41.5187C50.6938 42.1736 51.3259 42.7929 51.9224 43.4469C52.0018 43.5382 51.9333 43.8214 51.8548 43.9776C50.1942 47.2969 47.7444 49.8773 44.4854 51.6502C34.0725 57.3216 21.1715 51.3406 18.7363 39.7129C18.4979 38.5729 18.4276 37.3983 18.2696 36.1643H16.4236L19.9393 32.0658C21.1021 33.4213 22.2228 34.7266 23.4313 36.1378H21.134C20.924 41.3808 24.3492 47.9911 31.3377 50.3422C38.5802 52.782 46.9927 49.2398 50.0471 41.5187Z" fill="url(#paint1_linear_171_513)"/>
<path d="M53.816 36.1414H55.6273L52.1308 40.2152C50.9708 38.8634 49.8527 37.56 48.647 36.156H50.9543C51.1699 30.9496 47.7875 24.0762 40.3999 21.8219C32.9337 19.5384 25.0792 23.3098 22.0558 30.7733C21.3817 30.0956 20.725 29.4553 20.103 28.7839C20.039 28.7145 20.1486 28.4432 20.2254 28.2907C22.0924 24.595 24.8838 21.8237 28.6452 20.0928C38.9813 15.3431 50.9835 21.3716 53.3374 32.5097C53.5849 33.6862 53.6562 34.8955 53.816 36.1414Z" fill="url(#paint2_linear_171_513)"/>
<path d="M41.4858 54.5202C41.4858 55.2208 41.6557 55.9168 41.4356 56.452C41.2319 56.948 40.6372 57.3088 40.1614 57.6568C39.9613 57.803 39.6261 57.7728 39.3512 57.8103C38.5949 57.9153 37.9217 58.0149 37.3289 58.6972C36.5205 59.6289 35.0545 59.3612 34.2589 58.362C34.0899 58.1501 33.7784 57.9966 33.5053 57.9327C32.9856 57.803 32.443 57.7664 31.9151 57.666C31.1725 57.5253 30.566 56.7708 30.5651 56.0218C30.5651 55.5459 30.5651 55.0691 30.5651 54.5046C34.2333 55.6318 37.8294 55.6391 41.4858 54.5202Z" fill="url(#paint3_linear_171_513)"/>
<path d="M34.7073 12H37.4977V14.8097H34.7073V12Z" fill="url(#paint4_linear_171_513)"/>
<path d="M22.3325 51.1844C21.7095 51.8092 21.0537 52.4632 20.4399 53.0788L18.5217 51.1981L20.4399 49.3L22.3325 51.1844Z" fill="url(#paint5_linear_171_513)"/>
<path d="M60.228 36.9608H57.4448V34.184H60.228V36.9608Z" fill="url(#paint6_linear_171_513)"/>
<path d="M18.5436 19.8261L20.3978 17.9993L22.2959 19.8855L20.3777 21.7689L18.5436 19.8261Z" fill="url(#paint7_linear_171_513)"/>
<path d="M51.6923 21.7443L49.8618 19.9248L51.7663 18.0258L53.5739 19.8617L51.6923 21.7443Z" fill="url(#paint8_linear_171_513)"/>
<path d="M49.8215 51.1716L51.7461 49.2836L53.6359 51.1862L51.7333 53.0742L49.8215 51.1716Z" fill="url(#paint9_linear_171_513)"/>
<path d="M14.7594 36.9297H12V34.163H14.7594V36.9297Z" fill="url(#paint10_linear_171_513)"/>
<defs>
<linearGradient id="paint0_linear_171_513" x1="23.0909" y1="19.2973" x2="54.0328" y2="22.9053" gradientUnits="userSpaceOnUse">
<stop stop-color="#00D1FF"/>
<stop offset="1" stop-color="#5648FF"/>
</linearGradient>
<linearGradient id="paint1_linear_171_513" x1="13.9559" y1="27.5344" x2="60.798" y2="37.1523" gradientUnits="userSpaceOnUse">
<stop stop-color="#00D1FF"/>
<stop offset="1" stop-color="#5648FF"/>
</linearGradient>
<linearGradient id="paint2_linear_171_513" x1="17.6154" y1="13.9233" x2="64.4704" y2="23.5427" gradientUnits="userSpaceOnUse">
<stop stop-color="#00D1FF"/>
<stop offset="1" stop-color="#5648FF"/>
</linearGradient>
<linearGradient id="paint3_linear_171_513" x1="29.8023" y1="53.5116" x2="43.7236" y2="57.5433" gradientUnits="userSpaceOnUse">
<stop stop-color="#00D1FF"/>
<stop offset="1" stop-color="#5648FF"/>
</linearGradient>
<linearGradient id="paint4_linear_171_513" x1="34.5135" y1="11.4147" x2="38.2882" y2="11.8858" gradientUnits="userSpaceOnUse">
<stop stop-color="#00D1FF"/>
<stop offset="1" stop-color="#5648FF"/>
</linearGradient>
<linearGradient id="paint5_linear_171_513" x1="18.2571" y1="48.5128" x2="23.4095" y2="49.1658" gradientUnits="userSpaceOnUse">
<stop stop-color="#00D1FF"/>
<stop offset="1" stop-color="#5648FF"/>
</linearGradient>
<linearGradient id="paint6_linear_171_513" x1="57.2515" y1="33.6055" x2="61.0153" y2="34.0796" gradientUnits="userSpaceOnUse">
<stop stop-color="#00D1FF"/>
<stop offset="1" stop-color="#5648FF"/>
</linearGradient>
<linearGradient id="paint7_linear_171_513" x1="18.283" y1="17.2139" x2="23.3585" y2="17.8489" gradientUnits="userSpaceOnUse">
<stop stop-color="#00D1FF"/>
<stop offset="1" stop-color="#5648FF"/>
</linearGradient>
<linearGradient id="paint8_linear_171_513" x1="49.604" y1="17.2511" x2="54.6247" y2="17.881" gradientUnits="userSpaceOnUse">
<stop stop-color="#00D1FF"/>
<stop offset="1" stop-color="#5648FF"/>
</linearGradient>
<linearGradient id="paint9_linear_171_513" x1="49.5566" y1="48.4939" x2="54.7144" y2="49.1462" gradientUnits="userSpaceOnUse">
<stop stop-color="#00D1FF"/>
<stop offset="1" stop-color="#5648FF"/>
</linearGradient>
<linearGradient id="paint10_linear_171_513" x1="11.8084" y1="33.5866" x2="15.5406" y2="34.0544" gradientUnits="userSpaceOnUse">
<stop stop-color="#00D1FF"/>
<stop offset="1" stop-color="#5648FF"/>
</linearGradient>
</defs>
</svg>
