<svg width="72" height="72" viewBox="0 0 72 72" fill="none" xmlns="http://www.w3.org/2000/svg">
<rect width="72" height="72" fill="#DBDBDB"/>
<g clip-path="url(#clip0_0_1)" filter="url(#filter0_d_0_1)">
<rect width="1440" height="2322" transform="translate(-762 -1142)" fill="white"/>
<rect x="-30" y="-32" width="279" height="276" rx="20" fill="white"/>
<rect width="72" height="72" rx="20" fill="white"/>
<path d="M47.5051 36.5114C47.4558 39.5083 45.9422 42.4248 43.2312 44.8234C42.2731 45.672 41.5487 46.7845 40.7075 47.7682C40.5586 47.9418 40.385 48.1336 40.1823 48.2149C37.4758 49.279 34.7493 49.2927 32.0191 48.3062C31.8301 48.2426 31.6669 48.1192 31.5542 47.9546C30.7568 46.5434 29.6662 45.397 28.465 44.3219C22.6411 39.1009 23.6916 29.7311 30.5147 25.8866C38.0942 21.6127 47.5553 27.169 47.5051 36.5114ZM37.1297 41.6192C37.5864 41.4593 37.9654 41.3607 38.3171 41.1963C39.4762 40.6482 40.0115 39.7047 40.0352 38.4341C40.059 37.1873 39.4652 36.3424 38.3609 35.8546C37.8047 35.6089 37.2064 35.4555 36.6254 35.2591C36.082 35.0764 35.5093 34.943 35.0105 34.6745C34.7767 34.5475 34.5657 34.1493 34.5712 33.8789C34.5758 33.6341 34.8452 33.3227 35.08 33.1765C35.3406 33.0328 35.6422 32.9813 35.9358 33.0304C36.6528 33.1573 37.3562 33.3592 38.128 33.5464L39.2241 31.8201L37.137 31.009V29.9366H34.8534V31.0327C34.4323 31.2246 34.0432 31.3588 33.6989 31.568C32.6192 32.2238 32.2137 33.2194 32.2959 34.4553C32.3708 35.5843 32.9782 36.3095 33.9875 36.7269C34.4141 36.9041 34.8626 37.0311 35.3019 37.1772C35.9513 37.3946 36.6273 37.5554 37.2383 37.8504C37.4904 37.9728 37.6951 38.3656 37.7544 38.6679C37.8311 39.0817 37.5069 39.3895 37.1251 39.4653C36.662 39.5567 36.1514 39.6362 35.7038 39.5357C34.9941 39.3749 34.3191 39.0607 33.5728 38.7912L32.295 40.4765C33.0695 40.8071 33.7482 41.1387 34.457 41.3808C34.7694 41.4867 34.8763 41.6055 34.8562 41.9142C34.8361 42.2412 34.8516 42.57 34.8516 42.9189H37.1297V41.6192Z" fill="url(#paint0_linear_0_1)"/>
<path d="M50.0471 41.5187C50.6938 42.1736 51.3258 42.7929 51.9223 43.4469C52.0018 43.5382 51.9333 43.8214 51.8547 43.9776C50.1941 47.2969 47.7444 49.8773 44.4853 51.6502C34.0724 57.3216 21.1714 51.3406 18.7363 39.7129C18.4979 38.5729 18.4275 37.3983 18.2695 36.1643H16.4235L19.9392 32.0658C21.102 33.4213 22.2228 34.7266 23.4312 36.1378H21.134C20.9239 41.3808 24.3492 47.9911 31.3377 50.3422C38.5801 52.782 46.9926 49.2398 50.0471 41.5187Z" fill="url(#paint1_linear_0_1)"/>
<path d="M53.816 36.1414H55.6273L52.1307 40.2152C50.9707 38.8634 49.8527 37.56 48.647 36.156H50.9543C51.1698 30.9496 47.7875 24.0762 40.3998 21.8219C32.9336 19.5384 25.0792 23.3098 22.0558 30.7733C21.3817 30.0956 20.7249 29.4553 20.1029 28.7839C20.039 28.7145 20.1486 28.4432 20.2253 28.2907C22.0923 24.595 24.8837 21.8237 28.6451 20.0928C38.9813 15.3431 50.9835 21.3716 53.3373 32.5097C53.5849 33.6862 53.6561 34.8955 53.816 36.1414Z" fill="url(#paint2_linear_0_1)"/>
<path d="M41.4858 54.5202C41.4858 55.2208 41.6557 55.9168 41.4355 56.452C41.2319 56.948 40.6372 57.3088 40.1613 57.6568C39.9613 57.803 39.6261 57.7728 39.3511 57.8103C38.5948 57.9153 37.9217 58.0149 37.3289 58.6972C36.5205 59.6289 35.0545 59.3612 34.2589 58.362C34.0899 58.1501 33.7784 57.9966 33.5053 57.9327C32.9856 57.803 32.443 57.7664 31.9151 57.666C31.1725 57.5253 30.566 56.7708 30.565 56.0218C30.565 55.5459 30.565 55.0691 30.565 54.5046C34.2333 55.6318 37.8294 55.6391 41.4858 54.5202Z" fill="url(#paint3_linear_0_1)"/>
<path d="M34.7073 12H37.4978V14.8097H34.7073V12Z" fill="url(#paint4_linear_0_1)"/>
<path d="M22.3325 51.1844C21.7096 51.8092 21.0538 52.4632 20.44 53.0788L18.5218 51.1981L20.44 49.3L22.3325 51.1844Z" fill="url(#paint5_linear_0_1)"/>
<path d="M60.228 36.9608H57.4449V34.184H60.228V36.9608Z" fill="url(#paint6_linear_0_1)"/>
<path d="M18.5436 19.8261L20.3978 17.9993L22.2959 19.8855L20.3777 21.7689L18.5436 19.8261Z" fill="url(#paint7_linear_0_1)"/>
<path d="M51.6923 21.7443L49.8618 19.9248L51.7662 18.0258L53.5739 19.8617L51.6923 21.7443Z" fill="url(#paint8_linear_0_1)"/>
<path d="M49.8215 51.1716L51.7461 49.2836L53.6359 51.1862L51.7333 53.0742L49.8215 51.1716Z" fill="url(#paint9_linear_0_1)"/>
<path d="M14.7594 36.9297H12V34.163H14.7594V36.9297Z" fill="url(#paint10_linear_0_1)"/>
<rect x="-29.5" y="-31.5" width="278" height="275" rx="19.5" stroke="black" stroke-opacity="0.24"/>
</g>
<defs>
<filter id="filter0_d_0_1" x="-766" y="-1142" width="1448" height="2330" filterUnits="userSpaceOnUse" color-interpolation-filters="sRGB">
<feFlood flood-opacity="0" result="BackgroundImageFix"/>
<feColorMatrix in="SourceAlpha" type="matrix" values="0 0 0 0 0 0 0 0 0 0 0 0 0 0 0 0 0 0 127 0" result="hardAlpha"/>
<feOffset dy="4"/>
<feGaussianBlur stdDeviation="2"/>
<feComposite in2="hardAlpha" operator="out"/>
<feColorMatrix type="matrix" values="0 0 0 0 0 0 0 0 0 0 0 0 0 0 0 0 0 0 0.25 0"/>
<feBlend mode="normal" in2="BackgroundImageFix" result="effect1_dropShadow_0_1"/>
<feBlend mode="normal" in="SourceGraphic" in2="effect1_dropShadow_0_1" result="shape"/>
</filter>
<linearGradient id="paint0_linear_0_1" x1="23.0909" y1="19.2973" x2="54.0328" y2="22.9053" gradientUnits="userSpaceOnUse">
<stop stop-color="#00D1FF"/>
<stop offset="1" stop-color="#5648FF"/>
</linearGradient>
<linearGradient id="paint1_linear_0_1" x1="13.9559" y1="27.5344" x2="60.7979" y2="37.1523" gradientUnits="userSpaceOnUse">
<stop stop-color="#00D1FF"/>
<stop offset="1" stop-color="#5648FF"/>
</linearGradient>
<linearGradient id="paint2_linear_0_1" x1="17.6154" y1="13.9233" x2="64.4703" y2="23.5427" gradientUnits="userSpaceOnUse">
<stop stop-color="#00D1FF"/>
<stop offset="1" stop-color="#5648FF"/>
</linearGradient>
<linearGradient id="paint3_linear_0_1" x1="29.8023" y1="53.5116" x2="43.7236" y2="57.5433" gradientUnits="userSpaceOnUse">
<stop stop-color="#00D1FF"/>
<stop offset="1" stop-color="#5648FF"/>
</linearGradient>
<linearGradient id="paint4_linear_0_1" x1="34.5136" y1="11.4147" x2="38.2883" y2="11.8858" gradientUnits="userSpaceOnUse">
<stop stop-color="#00D1FF"/>
<stop offset="1" stop-color="#5648FF"/>
</linearGradient>
<linearGradient id="paint5_linear_0_1" x1="18.2572" y1="48.5128" x2="23.4096" y2="49.1658" gradientUnits="userSpaceOnUse">
<stop stop-color="#00D1FF"/>
<stop offset="1" stop-color="#5648FF"/>
</linearGradient>
<linearGradient id="paint6_linear_0_1" x1="57.2516" y1="33.6055" x2="61.0154" y2="34.0796" gradientUnits="userSpaceOnUse">
<stop stop-color="#00D1FF"/>
<stop offset="1" stop-color="#5648FF"/>
</linearGradient>
<linearGradient id="paint7_linear_0_1" x1="18.283" y1="17.2139" x2="23.3585" y2="17.8489" gradientUnits="userSpaceOnUse">
<stop stop-color="#00D1FF"/>
<stop offset="1" stop-color="#5648FF"/>
</linearGradient>
<linearGradient id="paint8_linear_0_1" x1="49.604" y1="17.2511" x2="54.6247" y2="17.881" gradientUnits="userSpaceOnUse">
<stop stop-color="#00D1FF"/>
<stop offset="1" stop-color="#5648FF"/>
</linearGradient>
<linearGradient id="paint9_linear_0_1" x1="49.5566" y1="48.4939" x2="54.7144" y2="49.1462" gradientUnits="userSpaceOnUse">
<stop stop-color="#00D1FF"/>
<stop offset="1" stop-color="#5648FF"/>
</linearGradient>
<linearGradient id="paint10_linear_0_1" x1="11.8084" y1="33.5866" x2="15.5406" y2="34.0544" gradientUnits="userSpaceOnUse">
<stop stop-color="#00D1FF"/>
<stop offset="1" stop-color="#5648FF"/>
</linearGradient>
<clipPath id="clip0_0_1">
<rect width="1440" height="2322" fill="white" transform="translate(-762 -1142)"/>
</clipPath>
</defs>
</svg>
