<svg width="72" height="72" viewBox="0 0 72 72" fill="none" xmlns="http://www.w3.org/2000/svg">
<rect width="72" height="72" rx="20" fill="white"/>
<path d="M59.0042 22.5654C59.0042 26.2921 58.0999 28.8679 56.1297 30.9825C54.3029 32.9408 52.3993 34.8234 50.4784 36.6876C49.2828 37.8486 47.5756 37.8331 46.4969 36.7662C45.3441 35.6253 45.3313 33.9401 46.5471 32.6796C48.183 30.9861 49.8756 29.3475 51.5334 27.6759C53.9375 25.2517 53.9996 21.652 51.6942 19.3758C49.4243 17.1361 45.863 17.1836 43.4927 19.532C40.5405 22.4549 37.603 25.3942 34.6801 28.35C32.1006 30.9514 31.9755 33.9218 34.2937 36.7534C35.4291 38.1381 35.4108 39.7677 34.2471 40.8418C33.0003 41.9918 31.3836 41.8621 30.0765 40.5075C26.1031 36.389 25.9323 29.489 29.8938 25.2536C33.1647 21.7351 36.5416 18.3025 40.0747 15.0608C43.637 11.7908 47.8807 11.1432 52.3016 13.107C56.6832 15.0526 58.7941 18.645 59.0042 22.5654Z" fill="url(#paint0_linear_723_283)"/>
<path d="M12 49.4873C12.0082 45.8163 13.0048 43.1902 15.0599 41.0181C16.7726 39.2077 18.5537 37.4604 20.3385 35.7203C21.6885 34.4041 23.3528 34.3384 24.5229 35.4856C25.7331 36.673 25.6409 38.3592 24.258 39.7631C22.6705 41.3753 21.0464 42.9518 19.4662 44.5704C17.0557 47.0412 17.0082 50.5642 19.3256 52.8751C21.5534 55.0974 25.1421 55.0426 27.5307 52.6924C30.5919 49.6782 33.628 46.6405 36.6392 43.5793C38.8597 41.3223 38.9356 38.0989 36.8977 35.6802C35.5569 34.0863 35.5468 32.4147 36.8703 31.2958C38.171 30.1942 39.7357 30.4354 41.1177 31.9507C44.9595 36.1643 44.9969 42.8678 41.0209 47.1042C37.7673 50.5697 34.4288 53.9739 30.9277 57.1855C27.412 60.4098 23.2139 61.0748 18.8241 59.1712C14.3648 57.2357 12.2192 53.6223 12 49.4873Z" fill="url(#paint1_linear_723_283)"/>
<defs>
<linearGradient id="paint0_linear_723_283" x1="24.7862" y1="5.82875" x2="67.947" y2="11.688" gradientUnits="userSpaceOnUse">
<stop stop-color="#00D1FF"/>
<stop offset="1" stop-color="#5648FF"/>
</linearGradient>
<linearGradient id="paint1_linear_723_283" x1="9.77771" y1="24.443" x2="52.9447" y2="30.3051" gradientUnits="userSpaceOnUse">
<stop stop-color="#00D1FF"/>
<stop offset="1" stop-color="#5648FF"/>
</linearGradient>
</defs>
</svg>
