<svg width="72" height="72" viewBox="0 0 72 72" fill="none" xmlns="http://www.w3.org/2000/svg">
<rect width="72" height="72" rx="20" fill="#282828" fill-opacity="0.64"/>
<path d="M35.9314 59.8627C22.7097 59.8627 12 49.1466 12 35.9231C12 22.6997 22.7271 11.9927 35.9825 12C49.1813 12.0064 59.87 22.7445 59.8627 35.9898C59.8554 49.1621 49.1292 59.8627 35.9314 59.8627ZM35.924 57.9445C48.0971 57.9445 57.9491 48.0952 57.9436 35.9314C57.9381 23.7675 48.1217 13.952 35.9405 13.9246C23.8022 13.8981 13.9328 23.7538 13.9273 35.9076C13.9236 48.0916 23.7547 57.9445 35.924 57.9445Z" fill="url(#paint0_linear_171_508)"/>
<path d="M32.9034 33.3318C33.5666 32.4467 34.2087 31.5653 34.8764 30.703C36.2246 28.9675 37.6303 27.2695 39.3612 25.8985C42.1481 23.6917 45.3121 22.4549 48.9018 22.4357C49.0215 22.4357 49.142 22.4458 49.2617 22.4531C49.3156 22.4531 49.3686 22.4649 49.4572 22.475C49.469 22.6915 49.4901 22.9061 49.4901 23.1208C49.4901 25.8711 48.6543 28.3802 47.2979 30.7441C46.284 32.5243 44.891 33.9876 43.3392 35.292C41.8339 36.5534 40.25 37.7198 38.7009 38.9273C38.668 38.9538 38.6369 38.9831 38.6214 38.9968C38.7931 39.5539 38.9785 40.0928 39.1238 40.6354C39.5914 42.3937 39.1941 44.0086 38.2652 45.5231C37.9427 46.0501 37.5993 46.5644 37.2312 47.0759C36.9572 45.0033 36.2082 43.1217 35.2217 41.2739L34.1457 41.9352C33.8031 40.9478 33.3556 40.0253 32.6349 39.3027C31.9142 38.5802 30.9908 38.1318 29.9951 37.7847C30.2208 37.4193 30.4327 37.0813 30.6601 36.7141C28.8333 35.7322 26.9544 34.9787 24.8965 34.7439C25.2445 34.2068 27.5362 32.9555 28.6652 32.7253C30.1468 32.4184 31.547 32.7719 32.9034 33.3318ZM45.5925 26.3141C45.253 25.9811 44.8225 25.7561 44.3553 25.6675C43.8881 25.5788 43.4051 25.6305 42.9673 25.816C42.5294 26.0016 42.1563 26.3126 41.895 26.7099C41.6337 27.1072 41.4958 27.5729 41.4989 28.0485C41.5019 28.524 41.6457 28.988 41.9121 29.3819C42.1785 29.7758 42.5556 30.082 42.9958 30.2619C43.436 30.4417 43.9196 30.4872 44.3857 30.3926C44.8517 30.298 45.2793 30.0675 45.6145 29.7302C45.8377 29.5047 46.0143 29.2373 46.1341 28.9434C46.2538 28.6496 46.3144 28.3349 46.3124 28.0176C46.3103 27.7002 46.2457 27.3864 46.1222 27.0941C45.9987 26.8018 45.8187 26.5367 45.5925 26.3141Z" fill="url(#paint1_linear_171_508)"/>
<path d="M29.1476 42.7765C30.536 42.5938 31.8166 42.1855 33.1027 41.6356C33.0872 41.7425 33.0835 41.8183 33.0653 41.895C32.6478 43.5912 31.7481 45.0006 30.4611 46.1597C28.247 48.1592 25.6036 49.1521 22.6697 49.448C22.6158 49.4535 22.5629 49.4635 22.4058 49.4873C22.4368 49.3791 22.4621 49.2693 22.4816 49.1585C22.7994 46.2995 23.7658 43.7136 25.7013 41.5388C26.8888 40.2079 28.3164 39.2726 30.0629 38.8534C30.105 38.8414 30.1476 38.8316 30.1908 38.8241C30.2214 38.8237 30.252 38.8264 30.2821 38.8323C29.7487 40.0965 29.3395 41.3844 29.1476 42.7765Z" fill="url(#paint2_linear_171_508)"/>
<defs>
<linearGradient id="paint0_linear_171_508" x1="8.6762" y1="2.02858" x2="73.4076" y2="10.1641" gradientUnits="userSpaceOnUse">
<stop stop-color="#00D1FF"/>
<stop offset="1" stop-color="#5648FF"/>
</linearGradient>
<linearGradient id="paint1_linear_171_508" x1="23.1886" y1="17.3023" x2="56.4519" y2="21.475" gradientUnits="userSpaceOnUse">
<stop stop-color="#00D1FF"/>
<stop offset="1" stop-color="#5648FF"/>
</linearGradient>
<linearGradient id="paint2_linear_171_508" x1="21.6629" y1="36.6026" x2="36.1285" y2="38.4264" gradientUnits="userSpaceOnUse">
<stop stop-color="#00D1FF"/>
<stop offset="1" stop-color="#5648FF"/>
</linearGradient>
</defs>
</svg>
