<svg width="72" height="72" viewBox="0 0 72 72" fill="none" xmlns="http://www.w3.org/2000/svg">
<rect width="72" height="72" rx="20" fill="white"/>
<path d="M35.9314 59.8627C22.7097 59.8627 12 49.1466 12 35.9231C12 22.6997 22.7271 11.9927 35.9825 12C49.1813 12.0064 59.87 22.7445 59.8627 35.9898C59.8554 49.1621 49.1292 59.8627 35.9314 59.8627ZM35.924 57.9445C48.0971 57.9445 57.9491 48.0952 57.9436 35.9314C57.9381 23.7675 48.1217 13.952 35.9405 13.9246C23.8022 13.8981 13.9328 23.7538 13.9273 35.9076C13.9236 48.0916 23.7547 57.9445 35.924 57.9445Z" fill="url(#paint0_linear_723_257)"/>
<path d="M32.9034 33.3318C33.5665 32.4467 34.2086 31.5653 34.8763 30.703C36.2245 28.9675 37.6303 27.2695 39.3612 25.8985C42.148 23.6917 45.3121 22.4549 48.9018 22.4357C49.0214 22.4357 49.142 22.4458 49.2616 22.4531C49.3155 22.4531 49.3685 22.4649 49.4571 22.475C49.469 22.6915 49.49 22.9061 49.49 23.1208C49.49 25.8711 48.6542 28.3802 47.2978 30.7441C46.2839 32.5243 44.891 33.9876 43.3391 35.292C41.8338 36.5534 40.2499 37.7198 38.7008 38.9273C38.6679 38.9538 38.6369 38.9831 38.6213 38.9968C38.793 39.5539 38.9785 40.0928 39.1237 40.6354C39.5914 42.3937 39.194 44.0086 38.2651 45.5231C37.9427 46.0501 37.5992 46.5644 37.2311 47.0759C36.9571 45.0033 36.2081 43.1217 35.2216 41.2739L34.1456 41.9352C33.8031 40.9478 33.3555 40.0253 32.6348 39.3027C31.9142 38.5802 30.9907 38.1318 29.9951 37.7847C30.2207 37.4193 30.4326 37.0813 30.66 36.7141C28.8332 35.7322 26.9543 34.9787 24.8964 34.7439C25.2444 34.2068 27.5362 32.9555 28.6652 32.7253C30.1467 32.4184 31.547 32.7719 32.9034 33.3318ZM45.5925 26.3141C45.253 25.9811 44.8225 25.7561 44.3553 25.6675C43.8881 25.5788 43.4051 25.6305 42.9672 25.816C42.5294 26.0016 42.1563 26.3126 41.8949 26.7099C41.6336 27.1072 41.4958 27.5729 41.4988 28.0485C41.5019 28.524 41.6457 28.988 41.9121 29.3819C42.1785 29.7758 42.5556 30.082 42.9958 30.2619C43.436 30.4417 43.9196 30.4872 44.3856 30.3926C44.8516 30.298 45.2792 30.0675 45.6144 29.7302C45.8377 29.5047 46.0142 29.2373 46.134 28.9434C46.2538 28.6496 46.3144 28.3349 46.3123 28.0176C46.3103 27.7002 46.2457 27.3864 46.1221 27.0941C45.9986 26.8018 45.8186 26.5367 45.5925 26.3141Z" fill="url(#paint1_linear_723_257)"/>
<path d="M29.1475 42.7765C30.5359 42.5938 31.8165 42.1855 33.1026 41.6356C33.0871 41.7425 33.0834 41.8183 33.0651 41.895C32.6477 43.5912 31.748 45.0006 30.461 46.1597C28.2469 48.1592 25.6035 49.1521 22.6696 49.448C22.6157 49.4535 22.5627 49.4635 22.4056 49.4873C22.4367 49.3791 22.462 49.2693 22.4815 49.1585C22.7993 46.2995 23.7657 43.7136 25.7012 41.5388C26.8887 40.2079 28.3163 39.2726 30.0628 38.8534C30.1048 38.8414 30.1475 38.8316 30.1906 38.8241C30.2213 38.8237 30.2519 38.8264 30.282 38.8323C29.7485 40.0965 29.3393 41.3844 29.1475 42.7765Z" fill="url(#paint2_linear_723_257)"/>
<defs>
<linearGradient id="paint0_linear_723_257" x1="8.6762" y1="2.02858" x2="73.4076" y2="10.1641" gradientUnits="userSpaceOnUse">
<stop stop-color="#00D1FF"/>
<stop offset="1" stop-color="#5648FF"/>
</linearGradient>
<linearGradient id="paint1_linear_723_257" x1="23.1885" y1="17.3023" x2="56.4518" y2="21.475" gradientUnits="userSpaceOnUse">
<stop stop-color="#00D1FF"/>
<stop offset="1" stop-color="#5648FF"/>
</linearGradient>
<linearGradient id="paint2_linear_723_257" x1="21.6628" y1="36.6026" x2="36.1283" y2="38.4264" gradientUnits="userSpaceOnUse">
<stop stop-color="#00D1FF"/>
<stop offset="1" stop-color="#5648FF"/>
</linearGradient>
</defs>
</svg>
